<svg width="30" height="30" viewBox="0 0 30 30" fill="none" xmlns="http://www.w3.org/2000/svg">
<path d="M23.8756 14.375C24.303 14.375 24.7179 14.4125 25.1328 14.4625L25.1454 0L0 25H14.534C14.4838 24.5875 14.446 24.175 14.446 23.75C14.446 18.575 18.6705 14.375 23.8756 14.375ZM28.54 24.3625C28.5652 24.1625 28.5903 23.9625 28.5903 23.75C28.5903 23.5375 28.5778 23.3375 28.54 23.1375L29.8727 22.1C29.9859 22 30.0236 21.8375 29.9482 21.7L28.6909 19.5375C28.6155 19.4 28.452 19.35 28.3012 19.4L26.7421 20.025C26.4153 19.775 26.0632 19.5625 25.6735 19.4125L25.4346 17.7625C25.422 17.6125 25.2837 17.5 25.1328 17.5H22.6183C22.4674 17.5 22.3291 17.6125 22.304 17.7625L22.0651 19.4125C21.6879 19.575 21.3233 19.775 20.9964 20.025L19.4374 19.4C19.2991 19.35 19.1357 19.4 19.0476 19.5375L17.7904 21.7C17.7149 21.8375 17.7401 22 17.8658 22.1L19.1985 23.1375C19.1734 23.3375 19.1608 23.5375 19.1608 23.75C19.1608 23.9625 19.1734 24.1625 19.1985 24.3625L17.8658 25.4C17.7527 25.5 17.7149 25.6625 17.7904 25.8L19.0476 27.9625C19.1231 28.1 19.2865 28.15 19.4374 28.1L20.9964 27.475C21.3233 27.725 21.6753 27.9375 22.0651 28.0875L22.304 29.7375C22.3291 29.8875 22.4548 30 22.6183 30H25.1328C25.2837 30 25.422 29.8875 25.4472 29.7375L25.686 28.0875C26.0632 27.925 26.4278 27.725 26.7421 27.475L28.3137 28.1C28.452 28.15 28.6155 28.1 28.7035 27.9625L29.9608 25.8C30.0362 25.6625 29.9985 25.5 29.8853 25.4L28.54 24.3625ZM23.8756 25.625C22.832 25.625 21.9897 24.7875 21.9897 23.75C21.9897 22.7125 22.832 21.875 23.8756 21.875C24.9191 21.875 25.7615 22.7125 25.7615 23.75C25.7615 24.7875 24.9191 25.625 23.8756 25.625Z" fill="white"/>
</svg>
