<?xml version="1.0" encoding="utf-8" ?>
<svg baseProfile="tiny" height="256" version="1.2" width="256" xmlns="http://www.w3.org/2000/svg" xmlns:ev="http://www.w3.org/2001/xml-events" xmlns:xlink="http://www.w3.org/1999/xlink"><defs /><path d="M 202,13 L 201,14 L 199,14 L 198,15 L 196,15 L 195,16 L 194,16 L 193,17 L 192,17 L 191,18 L 190,18 L 189,19 L 188,19 L 186,21 L 185,21 L 178,28 L 178,29 L 176,31 L 176,32 L 174,34 L 174,35 L 173,36 L 173,38 L 172,39 L 172,40 L 171,41 L 171,44 L 170,45 L 170,50 L 169,51 L 169,58 L 170,59 L 170,64 L 171,65 L 171,67 L 172,68 L 172,70 L 173,71 L 173,72 L 174,73 L 174,74 L 175,75 L 175,76 L 176,77 L 176,78 L 180,82 L 180,83 L 183,86 L 184,86 L 187,89 L 188,89 L 190,91 L 191,91 L 192,92 L 193,92 L 194,93 L 196,93 L 197,94 L 199,94 L 201,96 L 201,181 L 200,182 L 200,184 L 195,189 L 194,189 L 193,190 L 141,190 L 140,189 L 161,168 L 161,167 L 146,152 L 111,187 L 111,188 L 109,190 L 109,191 L 108,192 L 108,193 L 107,194 L 107,197 L 106,198 L 106,205 L 107,206 L 107,208 L 108,209 L 108,211 L 110,213 L 110,214 L 146,250 L 147,250 L 161,236 L 161,235 L 138,212 L 139,211 L 196,211 L 197,210 L 200,210 L 201,209 L 203,209 L 204,208 L 205,208 L 207,206 L 208,206 L 210,204 L 211,204 L 214,201 L 214,200 L 217,197 L 217,196 L 218,195 L 218,194 L 219,193 L 219,192 L 220,191 L 220,189 L 221,188 L 221,182 L 222,181 L 222,95 L 223,94 L 225,94 L 226,93 L 228,93 L 229,92 L 230,92 L 231,91 L 232,91 L 233,90 L 234,90 L 237,87 L 238,87 L 244,81 L 244,80 L 246,78 L 246,77 L 248,75 L 248,74 L 249,73 L 249,72 L 250,71 L 250,69 L 251,68 L 251,66 L 252,65 L 252,61 L 253,60 L 253,49 L 252,48 L 252,44 L 251,43 L 251,41 L 250,40 L 250,38 L 249,37 L 249,36 L 248,35 L 248,34 L 247,33 L 247,32 L 245,30 L 245,29 L 237,21 L 236,21 L 234,19 L 233,19 L 231,17 L 230,17 L 229,16 L 227,16 L 226,15 L 225,15 L 224,14 L 221,14 L 220,13 Z" fill="white" /><path d="M 107,6 L 107,7 L 101,13 L 100,13 L 99,14 L 99,15 L 98,16 L 97,16 L 97,17 L 96,18 L 95,18 L 95,19 L 94,20 L 94,21 L 116,43 L 115,44 L 59,44 L 58,45 L 55,45 L 54,46 L 52,46 L 51,47 L 50,47 L 48,49 L 47,49 L 45,51 L 44,51 L 41,54 L 41,55 L 38,58 L 38,59 L 37,60 L 37,61 L 36,62 L 36,63 L 35,64 L 35,66 L 34,67 L 34,73 L 33,74 L 33,160 L 32,161 L 29,161 L 28,162 L 27,162 L 26,163 L 25,163 L 24,164 L 23,164 L 22,165 L 21,165 L 18,168 L 17,168 L 11,174 L 11,175 L 9,177 L 9,178 L 7,180 L 7,181 L 6,182 L 6,183 L 5,184 L 5,186 L 4,187 L 4,189 L 3,190 L 3,194 L 2,195 L 2,206 L 3,207 L 3,211 L 4,212 L 4,214 L 5,215 L 5,217 L 6,218 L 6,219 L 7,220 L 7,221 L 8,222 L 8,223 L 10,225 L 10,226 L 18,234 L 19,234 L 21,236 L 22,236 L 24,238 L 25,238 L 26,239 L 28,239 L 29,240 L 30,240 L 31,241 L 34,241 L 35,242 L 53,242 L 54,241 L 56,241 L 57,240 L 59,240 L 60,239 L 61,239 L 62,238 L 63,238 L 64,237 L 65,237 L 66,236 L 67,236 L 69,234 L 70,234 L 77,227 L 77,226 L 79,224 L 79,223 L 81,221 L 81,220 L 82,219 L 82,217 L 83,216 L 83,215 L 84,214 L 84,211 L 85,210 L 85,205 L 86,204 L 86,197 L 85,196 L 85,191 L 84,190 L 84,188 L 83,187 L 83,185 L 82,184 L 82,183 L 81,182 L 81,181 L 80,180 L 80,179 L 79,178 L 79,177 L 75,173 L 75,172 L 72,169 L 71,169 L 68,166 L 67,166 L 65,164 L 64,164 L 63,163 L 62,163 L 61,162 L 59,162 L 58,161 L 56,161 L 54,159 L 54,74 L 55,73 L 55,71 L 60,66 L 61,66 L 62,65 L 114,65 L 115,66 L 94,87 L 94,89 L 108,103 L 109,103 L 144,68 L 144,67 L 146,65 L 146,64 L 147,63 L 147,61 L 148,60 L 148,49 L 147,48 L 147,46 L 146,45 L 146,44 L 145,43 L 145,42 L 109,6 Z" fill="white" /></svg>