<svg width="35" height="28" viewBox="0 0 35 28" fill="none" xmlns="http://www.w3.org/2000/svg">
<path fill-rule="evenodd" clip-rule="evenodd" d="M24.9297 15.9775C27.1092 17.605 28.6365 19.81 28.6365 22.75V28H35.0001V22.75C35.0001 18.935 29.3206 16.6775 24.9297 15.9775Z" fill="white"/>
<path d="M12.7271 14C16.2417 14 19.0908 10.866 19.0908 7C19.0908 3.13401 16.2417 0 12.7271 0C9.21262 0 6.36353 3.13401 6.36353 7C6.36353 10.866 9.21262 14 12.7271 14Z" fill="white"/>
<path fill-rule="evenodd" clip-rule="evenodd" d="M22.2727 14C25.7886 14 28.6363 10.8675 28.6363 7C28.6363 3.1325 25.7886 0 22.2727 0C21.525 0 20.825 0.175 20.1568 0.419999C21.4772 2.2225 22.2727 4.515 22.2727 7C22.2727 9.485 21.4772 11.7775 20.1568 13.58C20.825 13.825 21.525 14 22.2727 14ZM12.7272 15.75C8.47953 15.75 0 18.095 0 22.75V28H25.4545V22.75C25.4545 18.095 16.975 15.75 12.7272 15.75Z" fill="white"/>
</svg>
