<svg width="35" height="30" viewBox="0 0 35 30" fill="none" xmlns="http://www.w3.org/2000/svg">
<path d="M13.5276 0V2.5875C12.0424 1.96875 10.4499 1.65 8.85736 1.65C5.6544 1.65 2.45143 2.925 0 5.49375L5.95859 11.7375H7.94479V13.8187C9.48364 15.4312 11.4877 16.275 13.5097 16.3687V20.625H8.15951V26.25C8.15951 28.3125 9.76994 30 11.7382 30H29.6319C32.6022 30 35 27.4875 35 24.375V0H13.5276ZM11.5414 12.0187V7.9875H7.46166L5.60072 6.0375C6.63972 5.61734 7.74367 5.40124 8.85736 5.4C11.2551 5.4 13.4918 6.375 15.1917 8.1375L17.7147 10.7812L17.3569 11.1562C16.4443 12.1125 15.2275 12.6562 13.9213 12.6562C13.0803 12.6562 12.2572 12.4312 11.5414 12.0187ZM31.4213 24.375C31.4213 25.4062 30.6161 26.25 29.6319 26.25C28.6478 26.25 27.8425 25.4062 27.8425 24.375V20.625H17.1063V15.7687C18.1263 15.3375 19.0746 14.7 19.8978 13.8375L20.2556 13.4625L25.3195 18.75H27.8425V16.1063L17.1063 4.9125V3.75H31.4213V24.375Z" fill="white"/>
</svg>
