<svg width="30" height="30" viewBox="0 0 30 30" fill="none" xmlns="http://www.w3.org/2000/svg">
<path d="M15 13.6462C17.2473 13.6462 19.0614 11.8321 19.0614 9.58484C19.0614 7.33755 17.2473 5.52347 15 5.52347C12.7527 5.52347 10.9386 7.33755 10.9386 9.58484C10.9386 11.8321 12.7527 13.6462 15 13.6462ZM15 15C12.509 15 10.1805 15.6769 8.19043 16.8547C7.36462 17.3285 6.87726 18.2356 6.87726 19.1832V21.769H23.1227V19.1832C23.1227 18.2356 22.6354 17.3421 21.8096 16.8547C19.8195 15.6769 17.491 15 15 15ZM27.4955 9.78791L30 8.74549C28.3484 4.80596 25.194 1.63809 21.2545 0L20.2121 2.50451C23.4883 3.88538 26.1146 6.51173 27.4955 9.78791ZM9.78791 2.50451L8.74549 0C4.80596 1.65162 1.65162 4.80596 0 8.74549L2.50451 9.78791C3.88538 6.51173 6.51173 3.88538 9.78791 2.50451ZM2.50451 20.2121L0 21.2545C1.65162 25.194 4.80596 28.3619 8.74549 30L9.78791 27.4955C6.51173 26.1146 3.88538 23.4883 2.50451 20.2121ZM20.2121 27.4955L21.2545 30C25.194 28.3484 28.3619 25.194 30 21.2545L27.4955 20.2121C26.1146 23.4883 23.4883 26.1146 20.2121 27.4955Z" fill="white"/>
</svg>
