<svg width="30" height="30" viewBox="0 0 30 30" fill="none" xmlns="http://www.w3.org/2000/svg">
<path d="M0.0880356 8.91805L0.0886936 8.91774C0.0889931 8.91742 0.0889912 8.91742 0.0889912 8.91742L1.18579 7.75271V7.67574H1.258L7.9887 0.529993L8.00734 0.369377C8.02603 0.208888 8.15486 0.0881748 8.30764 0.0881748H8.40517L8.48819 0L8.61946 0.0881748H8.83394C8.99006 0.0881748 9.12026 0.213042 9.13484 0.376426L9.14117 0.437727L21.5512 8.76052H27.8655L30 11.6575H26.6581V19.1575C26.895 19.2618 27.0617 19.5077 27.0617 19.7957C27.0617 19.9379 27.0202 20.0702 26.9503 20.18C27.0062 20.218 27.0624 20.2682 27.123 20.3246C27.1779 20.3723 27.2036 20.4135 27.2394 20.4583L27.2897 20.5278L27.3147 20.5636L27.3278 20.5824L27.3495 20.6318C27.3773 20.6989 27.4028 20.771 27.4292 20.8447C27.4509 20.9194 27.457 21.0003 27.4695 21.0826C27.4982 21.4122 27.3896 21.7814 27.1587 22.0499C27.054 22.1809 26.8506 22.3275 26.7551 22.3606L26.711 22.3827L26.6885 22.3934L26.6775 22.3993L26.6494 22.4123L26.6478 22.4131L26.644 22.4144L26.6367 22.4158L26.5169 22.4464C26.4377 22.4681 26.3592 22.4829 26.2796 22.4777C26.1225 22.4874 25.973 22.4484 25.8428 22.4013C25.7789 22.3703 25.717 22.342 25.6608 22.3104C25.6099 22.2691 25.5607 22.2294 25.5135 22.1905C25.4232 22.112 25.3612 22.02 25.3104 21.938C25.2658 21.8478 25.2274 21.771 25.2156 21.7097C25.1929 21.5848 25.1849 21.51 25.1849 21.51C25.1849 21.51 25.2377 21.5603 25.3217 21.6519C25.3636 21.6994 25.4275 21.7287 25.4804 21.7743C25.5436 21.8103 25.6183 21.8523 25.6966 21.8819C25.7364 21.8944 25.7783 21.9071 25.8214 21.9205C25.8671 21.9243 25.9111 21.9315 25.9556 21.9376C26.0463 21.9411 26.1391 21.9425 26.2292 21.9163C26.2756 21.9108 26.3198 21.8939 26.363 21.8736L26.4212 21.8512V21.8509L26.4426 21.8385L26.485 21.813C26.5412 21.7801 26.6093 21.7413 26.622 21.7152C26.6484 21.6852 26.6798 21.6714 26.7079 21.6247C26.773 21.5533 26.8225 21.4659 26.8602 21.376C26.8988 21.2847 26.9212 21.1886 26.9324 21.0913C26.9333 21.0427 26.9391 20.9938 26.9385 20.9453C26.9321 20.8977 26.9257 20.8502 26.9225 20.8016L26.9218 20.7928L26.9214 20.7878L26.9212 20.7858C26.9114 20.7624 26.9352 20.816 26.9324 20.8103L26.9318 20.8085L26.9248 20.7875L26.91 20.7456L26.8826 20.6635C26.8655 20.6095 26.8506 20.5486 26.8305 20.5245C26.8021 20.4796 26.7795 20.4287 26.7511 20.3811C26.6504 20.4473 26.5329 20.4873 26.4057 20.4873C26.044 20.4873 25.7502 20.178 25.7502 19.7964C25.7502 19.4329 26.0172 19.1386 26.3556 19.111V11.6572H12.0824C11.7422 12.4298 11.0008 12.9669 10.1393 12.9669H9.83619V28.5115H12.2826V30H4.61576V28.5115H7.18886V12.9669H6.12927V11.7208H4.06116V13.6823H3.05197V11.7208H2.19473V13.6823H1.18579V11.7208H0.302629C0.135279 11.7208 6.10352e-05 11.5782 6.10352e-05 11.4019V9.1428C0.000299454 9.05525 0.0339832 8.97595 0.0880356 8.91805ZM8.56726 0.821391L8.56499 0.823846L8.31433 3.03017C8.3172 3.03017 8.32024 3.02828 8.32281 3.02828H8.76782L8.56726 0.821391ZM8.82612 3.66589H8.32275C8.29456 3.66589 8.27001 3.65677 8.24403 3.64903L8.06921 5.19092H8.96528L8.82612 3.66589ZM28.7638 11.0195L27.738 9.62735L26.715 11.0195H28.7638ZM27.1406 9.3982H24.0449L26.2234 10.6466L27.1406 9.3982ZM25.6069 11.0195L23.5114 9.8188L22.6288 11.0195H25.6069ZM23.0547 9.3982H19.5807L22.1284 10.6588L23.0547 9.3982ZM21.4331 11.0195L18.9541 9.79262L17.7898 11.0195H21.4331ZM18.4727 9.3982H15.7331L17.2984 10.6352L18.4727 9.3982ZM16.7759 11.0195L14.9282 9.55931L13.4656 11.0195H16.7759ZM12.5852 11.0195H12.692C12.6996 10.9479 12.7269 10.8785 12.7806 10.825L14.2098 9.3982H12.5852V11.0195ZM12.2826 7.46578V8.76052H20.4234L9.21373 1.24294L9.57262 5.19092H10.139V5.20709C11.323 5.20709 12.2826 6.21856 12.2826 7.46578ZM7.7934 28.3517H8.99837L7.7934 27.0121V28.3517ZM9.23105 27.6844V24.7559L8.0679 26.3901L9.23105 27.6844ZM7.7934 25.713L9.08879 23.8925L7.7934 22.5274V25.713ZM9.23105 23.1401V20.0346L8.28948 22.1471L9.23105 23.1401ZM7.7934 21.7593L9.11136 18.8025L7.7934 17.7273V21.7593ZM9.23105 18.093V15.5679L8.31403 17.3449L9.23105 18.093ZM7.7934 17.0185L9.0993 14.4873L7.7934 13.4218V17.0185ZM9.23105 13.7879V12.9673H8.22546L9.23105 13.7879ZM6.95151 10.3097H9.46142C10.6398 10.3097 11.5955 9.30272 11.5955 8.06091C11.5955 6.35186 10.6409 5.81267 9.46273 5.81186H7.55414H6.95145L6.95151 10.3097ZM4.0608 11.0831H6.12855V9.46189H4.0608V11.0831ZM2.19467 11.0831H3.05191V9.46189H2.19467V11.0831ZM2.19467 7.67567V8.82352H3.05191V7.67567H4.0611V8.82352H6.12921V5.19123H7.45936L7.87176 1.56033L2.11094 7.67599H2.19461V7.67567H2.19467ZM1.18603 8.65825L1.02961 8.8239H1.18603V8.65825ZM0.605379 11.0831H1.18579V9.46189H0.605379V11.0831Z" fill="white"/>
</svg>
