<?xml version="1.0" encoding="UTF-8" standalone="no" ?>
<!DOCTYPE svg PUBLIC "-//W3C//DTD SVG 1.1//EN" "http://www.w3.org/Graphics/SVG/1.1/DTD/svg11.dtd">
<svg xmlns="http://www.w3.org/2000/svg" xmlns:xlink="http://www.w3.org/1999/xlink" version="1.1" width="1080" height="1080" viewBox="0 0 1080 1080" xml:space="preserve">
<g transform="matrix(1 0 0 1 540 540)" id="7c4eddd6-951f-4818-ba33-c877af765e86"  >
<rect style="stroke: none; stroke-width: 1; stroke-dasharray: none; stroke-linecap: butt; stroke-dashoffset: 0; stroke-linejoin: miter; stroke-miterlimit: 4; fill: transparent; fill-rule: nonzero; opacity: 1; visibility: hidden;" vector-effect="non-scaling-stroke"  x="-540" y="-540" rx="0" ry="0" width="1080" height="1080" />
</g>
<g transform="matrix(1 0 0 1 540 540)" id="76f02f7b-6550-4a17-8624-6a483ea5328e"  >
</g>
<g transform="matrix(45 0 0 45 540 540)"  >
<path style="stroke: none; stroke-width: 1; stroke-dasharray: none; stroke-linecap: butt; stroke-dashoffset: 0; stroke-linejoin: miter; stroke-miterlimit: 4; fill: white; fill-rule: nonzero; opacity: 1;"  transform=" translate(-12, -12)" d="M 19.14 12.94 C 19.18 12.639999999999999 19.2 12.33 19.2 12 C 19.2 11.68 19.18 11.36 19.13 11.06 L 21.16 9.48 C 21.34 9.34 21.39 9.07 21.28 8.870000000000001 L 19.36 5.550000000000001 C 19.24 5.330000000000001 18.99 5.260000000000001 18.77 5.330000000000001 L 16.38 6.290000000000001 C 15.879999999999999 5.910000000000001 15.35 5.590000000000001 14.759999999999998 5.350000000000001 L 14.399999999999999 2.8100000000000014 C 14.36 2.570000000000001 14.159999999999998 2.4000000000000012 13.919999999999998 2.4000000000000012 L 10.079999999999998 2.4000000000000012 C 9.839999999999998 2.4000000000000012 9.649999999999999 2.570000000000001 9.609999999999998 2.8100000000000014 L 9.249999999999998 5.350000000000001 C 8.659999999999998 5.590000000000002 8.119999999999997 5.920000000000002 7.629999999999998 6.290000000000001 L 5.239999999999998 5.330000000000001 C 5.019999999999999 5.250000000000001 4.769999999999999 5.330000000000001 4.649999999999999 5.550000000000001 L 2.74 8.87 C 2.62 9.08 2.66 9.34 2.8600000000000003 9.479999999999999 L 4.890000000000001 11.059999999999999 C 4.840000000000001 11.36 4.800000000000001 11.69 4.800000000000001 11.999999999999998 C 4.800000000000001 12.309999999999997 4.82 12.639999999999999 4.870000000000001 12.939999999999998 L 2.840000000000001 14.519999999999998 C 2.660000000000001 14.659999999999998 2.610000000000001 14.929999999999998 2.720000000000001 15.129999999999997 L 4.640000000000001 18.449999999999996 C 4.760000000000001 18.669999999999995 5.010000000000001 18.739999999999995 5.23 18.669999999999995 L 7.620000000000001 17.709999999999994 C 8.120000000000001 18.089999999999993 8.65 18.409999999999993 9.240000000000002 18.649999999999995 L 9.600000000000001 21.189999999999994 C 9.650000000000002 21.429999999999993 9.840000000000002 21.599999999999994 10.080000000000002 21.599999999999994 L 13.920000000000002 21.599999999999994 C 14.160000000000002 21.599999999999994 14.360000000000001 21.429999999999993 14.390000000000002 21.189999999999994 L 14.750000000000002 18.649999999999995 C 15.340000000000002 18.409999999999997 15.880000000000003 18.089999999999996 16.37 17.709999999999994 L 18.76 18.669999999999995 C 18.98 18.749999999999993 19.23 18.669999999999995 19.35 18.449999999999996 L 21.270000000000003 15.129999999999995 C 21.390000000000004 14.909999999999995 21.340000000000003 14.659999999999995 21.150000000000002 14.519999999999996 z M 12 15.6 C 10.02 15.6 8.4 13.98 8.4 12 C 8.4 10.02 10.02 8.4 12 8.4 C 13.98 8.4 15.6 10.02 15.6 12 C 15.6 13.98 13.98 15.6 12 15.6" stroke-linecap="round" />
</g>
</svg>