<svg xmlns="http://www.w3.org/2000/svg" xmlns:xlink="http://www.w3.org/1999/xlink" version="1.1" width="22" height="22" viewBox="0 0 22 22" xml:space="preserve">
<path   d="M 18 11 L 18 13 L 22 13 L 22 11 z M 16 17.61 C 16.96 18.32 18.21 19.259999999999998 19.2 20 C 19.599999999999998 19.47 20 18.93 20.4 18.4 C 19.41 17.66 18.159999999999997 16.72 17.2 15.999999999999998 C 16.8 16.54 16.4 17.08 16 17.61 M 20.4 5.6 C 20 5.069999999999999 19.599999999999998 4.529999999999999 19.2 3.9999999999999996 C 18.21 4.739999999999999 16.96 5.68 16 6.3999999999999995 C 16.4 6.93 16.8 7.47 17.2 8 C 18.16 7.28 19.41 6.35 20.4 5.6 M 4 9 C 2.9 9 2 9.9 2 11 L 2 13 C 2 14.1 2.9 15 4 15 L 5 15 L 5 19 L 7 19 L 7 15 L 8 15 L 13 18 L 13 6 L 8 9 z M 15.5 12 C 15.5 10.67 14.92 9.47 14 8.65 L 14 15.34 C 14.92 14.53 15.5 13.33 15.5 12" fill="white"/>
</svg>