<svg width="30" height="30" viewBox="0 0 30 30" fill="none" xmlns="http://www.w3.org/2000/svg">
<path d="M17.7007 20.3056L20.9148 16.8759L30 26.5704L26.7859 30L17.7007 20.3056ZM23.3331 11.9438C26.2573 11.9438 28.6361 9.40552 28.6361 6.28516C28.6361 5.34744 28.3937 4.47439 28.0149 3.69834L23.924 8.0636L21.6664 5.65463L25.7573 1.28937C25.0301 0.885177 24.2119 0.626495 23.3331 0.626495C20.4089 0.626495 18.0301 3.16481 18.0301 6.28516C18.0301 6.94804 18.1513 7.57857 18.3483 8.16061L15.5453 11.1516L12.8484 8.27378L13.9241 7.12588L11.7878 4.84625L14.9998 1.41871C13.2271 -0.472903 10.3484 -0.472903 8.57567 1.41871L3.21209 7.14205L5.34843 9.42168H1.07575L0 10.5696L5.36358 16.2929L6.43933 15.145V10.5696L8.57567 12.8492L9.65142 11.7013L12.3484 14.5792L1.1212 26.5594L4.33329 29.9869L21.5755 11.6043C22.121 11.8145 22.7119 11.9438 23.3331 11.9438Z" fill="white"/>
</svg>
