<svg width="30" height="30" viewBox="0 0 30 30" fill="none" xmlns="http://www.w3.org/2000/svg">
<path d="M10.6757 4.32432H13.3784V7.02703H12.1622L16.0811 10.9459V9.72973H26.8919V21.7568L29.5946 24.4595V7.02703H16.0811V1.62162H6.75676L10.6757 5.54054V4.32432ZM21.4865 12.4324H24.1892V15.1351H21.4865V12.4324ZM1.62162 0L0 1.75676L2.56757 4.32432V25.9459H24.1892L28.2432 30L30 28.2432L1.62162 0ZM7.97297 23.2432H5.27027V20.5405H7.97297V23.2432ZM7.97297 17.8378H5.27027V15.1351H7.97297V17.8378ZM7.97297 12.4324H5.27027V9.72973H7.97297V12.4324ZM13.3784 23.2432H10.6757V20.5405H13.3784V23.2432ZM13.3784 17.8378H10.6757V15.1351H13.3784V17.8378ZM16.0811 23.2432V20.5405H18.7838L21.4865 23.2432H16.0811Z" fill="white"/>
</svg>
