<svg width="35" height="35" viewBox="0 0 35 35" fill="none" xmlns="http://www.w3.org/2000/svg">
<path d="M32.3498 2.54068L31.3558 6.65426H24.0699L23.0598 2.54068H22.0818L23.0919 6.65426H22.0408V7.57247H23.3173L23.5428 8.49068H22.0408V9.40888H23.7683L24.7604 13.449H25.4318L27.5073 9.40888H27.8944L30.0214 13.449H30.691L31.6673 9.40888H33.3458V8.49068H31.8891L32.111 7.57247H33.3458V6.65426H32.3329L33.327 2.54068H32.3498ZM24.2953 7.57247H27.3886L26.9169 8.49068H24.5208L24.2953 7.57247ZM25.2957 11.6465L24.7462 9.40888H26.4452L25.2957 11.6465ZM30.1463 11.6591L28.9617 9.40888H30.6901L30.1463 11.6591ZM30.912 8.49068H28.4783L27.9949 7.57247H31.1339L30.912 8.49068Z" fill="white"/>
<path d="M15.9626 20.2459C19.1855 20.2459 21.7959 17.6355 21.7959 14.4126C21.7959 11.1896 19.1855 8.57922 15.9626 8.57922C12.7396 8.57922 10.1292 11.1896 10.1292 14.4126C10.1292 17.6355 12.7396 20.2459 15.9626 20.2459ZM15.9626 23.1626C12.0688 23.1626 4.2959 25.1167 4.2959 28.9959V31.9126H27.6292V28.9959C27.6292 25.1167 19.8563 23.1626 15.9626 23.1626Z" fill="white"/>
</svg>
