<svg width="30" height="30" viewBox="0 0 30 30" fill="none" xmlns="http://www.w3.org/2000/svg">
<path d="M10.9622 20C7.30357 20 0 22.2333 0 26.6667V30H21.9244V26.6667C21.9244 22.2333 14.6208 20 10.9622 20ZM28.9128 6.4C28.9265 6.21667 28.9402 6.03333 28.9402 5.83333C28.9402 5.63333 28.9265 5.45 28.8991 5.26667L29.9131 4.3C30.009 4.21667 30.0228 4.05 29.9679 3.93333L29.0087 1.91667C28.9539 1.78333 28.8169 1.75 28.721 1.78333L27.5426 2.36667C27.2959 2.13333 27.0218 1.95 26.7341 1.8L26.556 0.25C26.5285 0.1 26.4326 0 26.3093 0H24.3909C24.2676 0 24.1717 0.1 24.158 0.25L23.9798 1.8C23.6921 1.95 23.418 2.15 23.1714 2.36667L21.9792 1.78333C21.8696 1.73333 21.7463 1.78333 21.6915 1.91667L20.7323 3.93333C20.6775 4.06667 20.6912 4.21667 20.7871 4.3L21.8011 5.26667C21.7737 5.45 21.76 5.65 21.76 5.83333C21.76 6.01667 21.7737 6.21667 21.8011 6.4L20.7871 7.36667C20.6912 7.45 20.6775 7.61667 20.7323 7.73333L21.6915 9.75C21.7463 9.88333 21.8833 9.91667 21.9792 9.88333L23.1714 9.3C23.418 9.53333 23.6921 9.71667 23.9798 9.86667L24.158 11.4167C24.1717 11.5667 24.2676 11.6667 24.3909 11.6667H26.3093C26.4326 11.6667 26.5285 11.5667 26.5423 11.4167L26.7204 9.86667C27.0081 9.71667 27.2822 9.51667 27.5288 9.3L28.721 9.88333C28.8306 9.93333 28.9539 9.88333 29.0087 9.75L29.9679 7.73333C30.0228 7.6 30.009 7.45 29.9131 7.36667L28.9128 6.4ZM25.3501 7.91667C24.4046 7.91667 23.6373 6.98333 23.6373 5.83333C23.6373 4.68333 24.4046 3.75 25.3501 3.75C26.2956 3.75 27.063 4.68333 27.063 5.83333C27.063 6.98333 26.2956 7.91667 25.3501 7.91667ZM25.9256 14.4667L25.2405 13.0167C25.1994 12.9167 25.1035 12.8833 25.0349 12.9167L24.1854 13.3333C24.0072 13.1667 23.8154 13.0333 23.6099 12.9333L23.4865 11.8333C23.4591 11.7333 23.3769 11.6667 23.2947 11.6667H21.9244C21.8422 11.6667 21.7737 11.7333 21.76 11.85L21.6367 12.95C21.4311 13.05 21.2393 13.2 21.0611 13.35L20.2116 12.9333C20.1294 12.9 20.0471 12.9333 20.006 13.0333L19.3209 14.4833C19.2798 14.5833 19.2935 14.6833 19.362 14.75L20.0882 15.4333C20.0745 15.5667 20.0608 15.7 20.0608 15.8333C20.0608 15.9667 20.0745 16.1167 20.0882 16.2333L19.362 16.9167C19.2935 16.9833 19.2798 17.1 19.3209 17.1833L20.006 18.6333C20.0471 18.7333 20.1431 18.7667 20.2116 18.7333L21.0611 18.3167C21.2393 18.4833 21.4311 18.6167 21.6367 18.7167L21.76 19.8167C21.7737 19.9333 21.8422 20 21.9244 20H23.2947C23.3769 20 23.4591 19.9333 23.4591 19.8167L23.5825 18.7167C23.788 18.6167 23.9798 18.4667 24.158 18.3167L25.0075 18.7333C25.0898 18.7667 25.172 18.7333 25.2131 18.6333L25.8982 17.1833C25.9393 17.0833 25.9256 16.9833 25.8571 16.9167L25.1446 16.2333C25.1583 16.1 25.172 15.9667 25.172 15.8333C25.172 15.7 25.1583 15.55 25.1446 15.4333L25.8708 14.75C25.9393 14.6833 25.953 14.5667 25.9256 14.4667ZM22.6096 17.2167C21.9792 17.2167 21.4722 16.5833 21.4722 15.8333C21.4722 15.0667 21.9929 14.45 22.6096 14.45C23.2262 14.45 23.7469 15.0833 23.7469 15.8333C23.7469 16.6 23.2399 17.2167 22.6096 17.2167ZM5.12483 10H16.8133C17.1833 10 17.4847 9.63333 17.4847 9.18333V9.15C17.4847 8.7 17.1833 8.33333 16.8133 8.33333H16.4433C16.4433 5.86667 15.3334 3.75 13.7028 2.58333V4.16667C13.7028 4.63333 13.4013 5 13.0176 5C12.6339 5 12.3325 4.63333 12.3325 4.16667V1.9C11.894 1.76667 11.4418 1.66667 10.9622 1.66667C10.4826 1.66667 10.0304 1.76667 9.59193 1.9V4.16667C9.59193 4.63333 9.29047 5 8.9068 5C8.52312 5 8.22166 4.63333 8.22166 4.16667V2.58333C6.59103 3.75 5.4811 5.86667 5.4811 8.33333H5.12483C4.75486 8.33333 4.4534 8.7 4.4534 9.15V9.2C4.4534 9.63333 4.75486 10 5.12483 10ZM10.9622 16.6667C13.5109 16.6667 15.6349 14.5333 16.2515 11.6667H5.67294C6.28957 14.5333 8.4135 16.6667 10.9622 16.6667Z" fill="white"/>
</svg>
